<svg xmlns="http://www.w3.org/2000/svg" version="1.1" xmlns:xlink="http://www.w3.org/1999/xlink" xmlns:svgjs="http://svgjs.dev/svgjs" width="1440" height="560" preserveAspectRatio="none" viewBox="0 0 1440 560"><g mask="url(&quot;#SvgjsMask1431&quot;)" fill="none"><rect width="1440" height="560" x="0" y="0" fill="url(&quot;#SvgjsLinearGradient1432&quot;)"></rect><path d="M1202.75-48.9C1071.09-34.6 992.72 251.11 767.52 253.09 542.32 255.07 549.91 183.09 332.3 183.09 114.68 183.09 7.27 252.87-102.93 253.09" stroke="rgba(51,121,194,0.58)" stroke-width="2"></path><path d="M903.64-101.76C738.12-56.83 683.64 397.92 438.05 402.09 192.46 406.26 98.16 215.32-27.54 211.69" stroke="rgba(51,121,194,0.58)" stroke-width="2"></path><path d="M1151.31-90.84C986.07-80.4 886.06 219.85 571.75 229.7 257.44 239.55 143.04 396.02-7.81 397.7" stroke="rgba(51,121,194,0.58)" stroke-width="2"></path><path d="M1115.94-58.17C1003.93-53.66 914.68 130.15 709.12 130.46 503.56 130.77 505.71 60.46 302.31 60.46 98.9 60.46-1.31 130.21-104.51 130.46" stroke="rgba(51,121,194,0.58)" stroke-width="2"></path><path d="M851.48-13.27C668.38 21.31 590.21 478.82 296.52 484.26 2.83 489.7-116.9 372.82-258.44 372.26" stroke="rgba(51,121,194,0.58)" stroke-width="2"></path></g><defs><mask id="SvgjsMask1431"><rect width="1440" height="560" fill="#ffffff"></rect></mask><linearGradient x1="15.28%" y1="139.29%" x2="84.72%" y2="-39.29%" gradientUnits="userSpaceOnUse" id="SvgjsLinearGradient1432"><stop stop-color="#0e2a47" offset="0"></stop><stop stop-color="rgba(0, 119, 158, 0)" offset="1"></stop></linearGradient></defs></svg>